<?xml version="1.0" encoding="UTF-8"?>
<svg width="49px" height="49px" viewBox="0 0 49 49" version="1.1" xmlns="http://www.w3.org/2000/svg" xmlns:xlink="http://www.w3.org/1999/xlink">
    <!-- Generator: Sketch 47.1 (45422) - http://www.bohemiancoding.com/sketch -->
    <title>bubble</title>
    <desc>Created with Sketch.</desc>
    <defs></defs>
    <g id="Page-1" stroke="none" stroke-width="1" fill="none" fill-rule="evenodd">
        <g id="Artboard" transform="translate(-379.000000, -29.000000)" fill-rule="nonzero" fill="#E0E0E0">
            <g id="bubble" transform="translate(379.000000, 29.000000)">
                <path d="M44.1,0 L4.9,0 C2.205,0 0,2.205 0,4.9 L0,49 L9.8,39.2 L44.1,39.2 C46.795,39.2 49,36.995 49,34.3 L49,4.9 C49,2.205 46.795,0 44.1,0 Z M17.15,22.05 L12.25,22.05 L12.25,17.15 L17.15,17.15 L17.15,22.05 Z M26.95,22.05 L22.05,22.05 L22.05,17.15 L26.95,17.15 L26.95,22.05 Z M36.75,22.05 L31.85,22.05 L31.85,17.15 L36.75,17.15 L36.75,22.05 Z" id="Shape"></path>
            </g>
        </g>
    </g>
</svg>