<?xml version="1.0" encoding="UTF-8"?>
<svg width="40px" height="40px" viewBox="0 0 40 40" version="1.1" xmlns="http://www.w3.org/2000/svg" xmlns:xlink="http://www.w3.org/1999/xlink">
    <!-- Generator: Sketch 47.1 (45422) - http://www.bohemiancoding.com/sketch -->
    <title>coin</title>
    <desc>Created with Sketch.</desc>
    <defs></defs>
    <g id="Page-1" stroke="none" stroke-width="1" fill="none" fill-rule="evenodd">
        <g id="Artboard" transform="translate(-898.000000, -45.000000)" fill-rule="nonzero" fill="#FFFFFF">
            <g id="coin" transform="translate(898.000000, 45.000000)">
                <path d="M21.5509601,18.4738732 L18.4579025,18.4738732 C17.1728213,18.4738732 16.127031,17.4854408 16.127031,16.2708416 C16.127031,15.0562425 17.1728213,14.0678101 18.4579025,14.0678101 L23.9172821,14.0678101 C24.5022157,14.0678101 24.9807976,13.6154767 24.9807976,13.0626247 C24.9807976,12.5097726 24.5022157,12.0574392 23.9172821,12.0574392 L21.0723781,12.0574392 L21.0723781,10.0051855 C21.0723781,9.45233347 20.5937962,9 20.0088626,9 C19.4239291,9 18.9453471,9.45233347 18.9453471,10.0051855 L18.9453471,12.0574392 L18.4579025,12.0574392 C16.0029542,12.0574392 14,13.9505385 14,16.2708416 C14,18.5911448 16.0029542,20.4842441 18.4579025,20.4842441 L21.5509601,20.4842441 C22.8360414,20.4842441 23.8818316,21.4726765 23.8818316,22.6872756 C23.8818316,23.9018748 22.8360414,24.8903071 21.5509601,24.8903071 L15.9940916,24.8903071 C15.4091581,24.8903071 14.9305761,25.3426406 14.9305761,25.8954926 C14.9305761,26.4483446 15.4091581,26.9006781 15.9940916,26.9006781 L18.9364845,26.9006781 L18.9364845,28.9948145 C18.9364845,29.5476665 19.4150665,30 20,30 C20.5849335,30 21.0635155,29.5476665 21.0635155,28.9948145 L21.0635155,26.9006781 L21.577548,26.9006781 C21.5864106,26.9006781 21.5952733,26.9006781 21.6041359,26.9006781 C24.0324963,26.8671719 26,24.9908257 26,22.6872756 C26,20.3585959 24.0059084,18.4738732 21.5509601,18.4738732 Z" id="Shape"></path>
                <path d="M34.1446809,5.85531915 C30.3659574,2.07659574 25.3446809,0 20,0 C14.6553191,0 9.63404255,2.07659574 5.85531915,5.85531915 C2.07659574,9.63404255 0,14.6553191 0,20 C0,25.3446809 2.07659574,30.3659574 5.85531915,34.1446809 C9.63404255,37.9234043 14.6553191,40 20,40 C25.3446809,40 30.3659574,37.9234043 34.1446809,34.1446809 C37.9234043,30.3659574 40,25.3446809 40,20 C40,14.6553191 37.9234043,9.63404255 34.1446809,5.85531915 Z M20,37.9574468 C10.1021277,37.9574468 2.04255319,29.8978723 2.04255319,20 C2.04255319,10.1021277 10.1021277,2.04255319 20,2.04255319 C29.8978723,2.04255319 37.9574468,10.1021277 37.9574468,20 C37.9574468,29.8978723 29.8978723,37.9574468 20,37.9574468 Z" id="Shape"></path>
            </g>
        </g>
    </g>
</svg>