<?xml version="1.0" encoding="UTF-8"?>
<svg width="48px" height="37px" viewBox="0 0 48 37" version="1.1" xmlns="http://www.w3.org/2000/svg" xmlns:xlink="http://www.w3.org/1999/xlink">
    <!-- Generator: Sketch 47.1 (45422) - http://www.bohemiancoding.com/sketch -->
    <title>envelope</title>
    <desc>Created with Sketch.</desc>
    <defs></defs>
    <g id="Page-1" stroke="none" stroke-width="1" fill="none" fill-rule="evenodd">
        <g id="Artboard" transform="translate(-828.000000, -47.000000)" fill-rule="nonzero" fill="#FFFFFF">
            <g id="envelope" transform="translate(828.000000, 47.000000)">
                <path d="M42.1402609,0 L5.86964276,0 C2.63190411,0 0,2.66585101 0,5.94535073 L0,31.0546493 C0,34.334149 2.63190411,37 5.86964276,37 L42.1303292,37 C45.3680679,37 47.999972,34.334149 47.999972,31.0546493 L47.999972,5.95541055 C48.0099037,2.67591082 45.3779996,0 42.1402609,0 Z M45.328341,31.0546493 C45.328341,32.8352365 43.8981743,34.2838499 42.1402609,34.2838499 L5.86964276,34.2838499 C4.11172944,34.2838499 2.68156268,32.8352365 2.68156268,31.0546493 L2.68156268,5.95541055 C2.68156268,4.17482327 4.11172944,2.7262099 5.86964276,2.7262099 L42.1303292,2.7262099 C43.8882425,2.7262099 45.3184093,4.17482327 45.3184093,5.95541055 L45.3184093,31.0546493 L45.328341,31.0546493 Z" id="Shape"></path>
                <path d="M30.774895,18.1771771 L42.5332591,7.40350635 C43.0803911,6.89531433 43.1301304,6.0313879 42.6327377,5.46221284 C42.135345,4.90320162 41.2897773,4.85238242 40.7326975,5.36057444 L24.5176945,20.2302729 L21.3542768,17.3437422 C21.3443289,17.3335784 21.3343811,17.3234145 21.3343811,17.3132507 C21.2647461,17.2421038 21.1951111,17.1811208 21.1155283,17.1201377 L8.24300445,5.3504106 C7.6859246,4.84221858 6.84035696,4.89303778 6.34296423,5.46221284 C5.8455715,6.0313879 5.89531077,6.89531433 6.45239063,7.40350635 L18.3500247,18.2686517 L6.5021299,29.6013337 C5.96494576,30.1196895 5.93510219,30.983616 6.44244278,31.5426272 C6.71103485,31.8272147 7.06915761,31.9796723 7.42728038,31.9796723 C7.75555958,31.9796723 8.08383878,31.8577062 8.342483,31.6137741 L20.3694392,20.1184706 L23.6323355,23.0964759 C23.8909797,23.3302442 24.209311,23.4420464 24.5276424,23.4420464 C24.8459737,23.4420464 25.1742529,23.3200803 25.4229493,23.086312 L28.7753763,20.0168322 L40.7326975,31.6239379 C40.9913417,31.8780339 41.3295687,32 41.6578479,32 C42.0159707,32 42.3641456,31.8577062 42.6327377,31.5731187 C43.1400783,31.0242713 43.1201826,30.1501811 42.5829984,29.6318252 L30.774895,18.1771771 Z" id="Shape"></path>
            </g>
        </g>
    </g>
</svg>