<?xml version="1.0" encoding="iso-8859-1"?>
<!-- Generator: Adobe Illustrator 19.0.0, SVG Export Plug-In . SVG Version: 6.00 Build 0)  -->
<svg version="1.1" id="Layer_1" xmlns="http://www.w3.org/2000/svg" xmlns:xlink="http://www.w3.org/1999/xlink" x="0px" y="0px"
	 viewBox="0 0 512 512" style="enable-background:new 0 0 512 512;" xml:space="preserve">
<rect x="180.71" y="417.38" style="fill:#CCCBCA;" width="150.592" height="66.263"/>
<rect x="144.563" y="483.633" style="fill:#E6E5E5;" width="222.874" height="18.074"/>
<path style="fill:#3F4A5A;" d="M0,357.14V28.36c0-4.621,1.766-9.247,5.297-12.774c3.528-3.528,8.138-5.292,12.774-5.292h475.858
	c4.626,0,9.257,1.761,12.774,5.292c3.53,3.528,5.297,8.154,5.297,12.774V357.14L0,357.14L0,357.14z"/>
<rect x="33.129" y="43.423" style="fill:#FFFFFF;" width="445.747" height="280.576"/>
<path style="fill:#E6E5E5;" d="M512,399.299c0,4.631-1.766,9.254-5.294,12.774c-3.517,3.538-8.151,5.299-12.774,5.299H18.071
	c-4.639,0-9.247-1.761-12.774-5.299C1.766,408.553,0,403.927,0,399.299V357.14h512V399.299z"/>
<rect x="77.696" y="155.425" style="fill:#F67656;" width="133.734" height="133.709"/>
<rect x="104.445" y="182.167" style="fill:#E66847;" width="80.238" height="80.23"/>
<rect x="256" y="155.425" style="fill:#3F4A5A;" width="89.155" height="13.371"/>
<g>
	<rect x="256" y="182.167" style="fill:#D9D8D7;" width="178.304" height="13.371"/>
	<rect x="256" y="208.919" style="fill:#D9D8D7;" width="178.304" height="13.368"/>
	<rect x="256" y="235.645" style="fill:#D9D8D7;" width="178.304" height="13.371"/>
</g>
<rect x="300.57" y="262.397" style="fill:#F67656;" width="89.155" height="26.744"/>
<path style="fill:#FAD97F;" d="M33.129,43.423v54.851c0,12.314,9.987,22.295,22.295,22.295c12.303,0,22.272-9.984,22.272-22.295
	V43.423H33.129z"/>
<path style="fill:#F5B947;" d="M77.696,43.423v54.851c0,12.314,9.987,22.295,22.292,22.295c12.316,0,22.295-9.984,22.295-22.295
	V43.423H77.696z"/>
<path style="fill:#FAD97F;" d="M122.284,43.423v54.851c0,12.314,9.964,22.295,22.292,22.295c12.296,0,22.285-9.984,22.285-22.295
	V43.423H122.284z"/>
<path style="fill:#F5B947;" d="M166.858,43.423v54.851c0,12.314,9.974,22.295,22.282,22.295c12.319,0,22.292-9.984,22.292-22.295
	V43.423H166.858z"/>
<path style="fill:#FAD97F;" d="M211.433,43.423v54.851c0,12.314,9.979,22.295,22.282,22.295c12.308,0,22.285-9.984,22.285-22.295
	V43.423H211.433z"/>
<path style="fill:#F5B947;" d="M256,43.423v54.851c0,12.314,9.987,22.295,22.295,22.295c12.306,0,22.292-9.984,22.292-22.295V43.423
	H256z"/>
<path style="fill:#FAD97F;" d="M300.588,43.423v54.851c0,12.314,9.979,22.295,22.282,22.295c12.306,0,22.285-9.984,22.285-22.295
	V43.423H300.588z"/>
<g>
	<path style="fill:#F5B947;" d="M345.155,43.423v54.851c0,12.314,9.974,22.295,22.29,22.295c12.311,0,22.285-9.984,22.285-22.295
		V43.423H345.155z"/>
	<path style="fill:#F5B947;" d="M434.304,43.423v54.851c0,12.314,9.976,22.295,22.282,22.295c12.308,0,22.282-9.984,22.282-22.295
		V43.423H434.304z"/>
</g>
<path style="fill:#FAD97F;" d="M389.729,43.423v54.851c0,12.314,9.974,22.295,22.282,22.295c12.319,0,22.292-9.984,22.292-22.295
	V43.423H389.729z"/>
<g>
</g>
<g>
</g>
<g>
</g>
<g>
</g>
<g>
</g>
<g>
</g>
<g>
</g>
<g>
</g>
<g>
</g>
<g>
</g>
<g>
</g>
<g>
</g>
<g>
</g>
<g>
</g>
<g>
</g>
</svg>
