<?xml version="1.0" encoding="iso-8859-1"?>
<!-- Generator: Adobe Illustrator 19.0.0, SVG Export Plug-In . SVG Version: 6.00 Build 0)  -->
<svg version="1.1" id="Layer_1" xmlns="http://www.w3.org/2000/svg" xmlns:xlink="http://www.w3.org/1999/xlink" x="0px" y="0px"
	 viewBox="0 0 512 512" style="enable-background:new 0 0 512 512;" xml:space="preserve">
<path style="fill:#FAD97F;" d="M512,477.737c0,4.918-1.871,9.838-5.627,13.583c-3.745,3.75-8.663,5.617-13.573,5.617H19.2
	c-4.918,0-9.828-1.866-13.578-5.617C1.874,487.575,0,482.655,0,477.737V135.526h512V477.737z"/>
<path style="fill:#F5B947;" d="M512,135.526H0V34.263c0-4.918,1.871-9.836,5.622-13.581c3.753-3.75,8.66-5.619,13.578-5.619h473.6
	c4.91,0,9.828,1.869,13.573,5.619c3.756,3.745,5.627,8.663,5.627,13.581V135.526z"/>
<g>
	<rect x="201.779" y="135.526" style="fill:#FFFFFF;" width="108.416" height="106.9"/>
	<polygon style="fill:#FFFFFF;" points="201.792,256 201.792,228.872 215.324,242.427 	"/>
	<polygon style="fill:#FFFFFF;" points="228.874,256 215.324,242.427 228.874,228.872 242.437,242.427 	"/>
	<polygon style="fill:#FFFFFF;" points="256,256 242.437,242.427 256,228.872 269.527,242.427 	"/>
	<polygon style="fill:#FFFFFF;" points="283.09,256 269.527,242.427 283.09,228.872 296.584,242.427 	"/>
	<polygon style="fill:#FFFFFF;" points="310.211,256 296.584,242.427 310.211,228.872 	"/>
</g>
<rect x="201.779" y="15.063" style="fill:#E6E5E5;" width="108.416" height="120.474"/>
<rect x="29.473" y="369.843" style="fill:#F5B947;" width="172.314" height="97.638"/>
<g>
	<rect x="43.418" y="383.77" style="fill:#FAD97F;" width="144.41" height="13.944"/>
	<rect x="43.418" y="411.674" style="fill:#FAD97F;" width="144.41" height="13.949"/>
	<rect x="43.418" y="439.578" style="fill:#FAD97F;" width="72.218" height="13.949"/>
</g>
<rect x="384" y="397.722" style="fill:#FFFFFF;" width="98.527" height="69.734"/>
<g>
	<rect x="397.978" y="411.674" style="fill:#E6E5E5;" width="70.61" height="13.949"/>
	<rect x="397.978" y="439.578" style="fill:#E6E5E5;" width="70.61" height="13.949"/>
</g>
<g>
</g>
<g>
</g>
<g>
</g>
<g>
</g>
<g>
</g>
<g>
</g>
<g>
</g>
<g>
</g>
<g>
</g>
<g>
</g>
<g>
</g>
<g>
</g>
<g>
</g>
<g>
</g>
<g>
</g>
</svg>
