<?xml version="1.0" encoding="UTF-8"?>
<svg width="43px" height="47px" viewBox="0 0 43 47" version="1.1" xmlns="http://www.w3.org/2000/svg" xmlns:xlink="http://www.w3.org/1999/xlink">
    <!-- Generator: Sketch 47.1 (45422) - http://www.bohemiancoding.com/sketch -->
    <title>package</title>
    <desc>Created with Sketch.</desc>
    <defs></defs>
    <g id="Page-1" stroke="none" stroke-width="1" fill="none" fill-rule="evenodd">
        <g id="Artboard" transform="translate(-753.000000, -37.000000)" fill-rule="nonzero" fill="#FFFFFF">
            <g id="package" transform="translate(753.000000, 37.000000)">
                <path d="M42.9802843,11.0804137 C42.9802843,10.9018573 42.9408528,10.723301 42.8619899,10.5546644 C42.7042641,10.2173913 42.3986703,9.98923596 42.063503,9.91979738 L21.9830353,0.119037569 C21.6577258,-0.0396791895 21.2732691,-0.0396791895 20.9479597,0.119037569 L0.670334709,10.0090756 C0.276020174,10.1975517 0.0197157267,10.5943436 0,11.0407345 L0,11.0506543 C0,11.0605741 0,11.0704939 0,11.0903335 L0,35.9096665 C0,36.3659772 0.256304448,36.7826087 0.670334709,36.9810046 L20.9479597,46.8710426 C20.9578175,46.8710426 20.9578175,46.8710426 20.9676754,46.8809624 C20.997249,46.8908822 21.0268226,46.900802 21.0563961,46.9206416 C21.066254,46.9206416 21.0761119,46.9305614 21.0958276,46.9305614 C21.1254012,46.9404812 21.1549748,46.950401 21.1845484,46.9603208 C21.1944062,46.9603208 21.2042641,46.9702406 21.214122,46.9702406 C21.2436956,46.9801604 21.283127,46.9801604 21.3127006,46.9900802 C21.3225585,46.9900802 21.3324163,46.9900802 21.3422742,46.9900802 C21.3817056,46.9900802 21.430995,47 21.4704264,47 C21.5098579,47 21.5591472,47 21.5985786,46.9900802 C21.6084365,46.9900802 21.6182944,46.9900802 21.6281522,46.9900802 C21.6577258,46.9900802 21.6971573,46.9801604 21.7267309,46.9702406 C21.7365887,46.9702406 21.7464466,46.9603208 21.7563044,46.9603208 C21.785878,46.950401 21.8154516,46.9404812 21.8450252,46.9305614 C21.8548831,46.9305614 21.8647409,46.9206416 21.8844567,46.9206416 C21.9140303,46.9107218 21.9436039,46.900802 21.9731774,46.8809624 C21.9830353,46.8809624 21.9830353,46.8809624 21.9928932,46.8710426 L42.3296653,36.9512453 C42.7338377,36.7528493 43,36.3362178 43,35.8799071 L43,11.1101731 C42.9802843,11.1002533 42.9802843,11.0903335 42.9802843,11.0804137 Z M21.4605685,2.50970874 L39.0469968,11.0903335 L32.5703806,14.2547488 L14.9839523,5.6741241 L21.4605685,2.50970874 Z M21.4605685,19.6709582 L3.8741403,11.0903335 L12.2730399,6.99345715 L29.8594681,15.5740819 L21.4605685,19.6709582 Z M2.36588721,13.0048544 L20.2776249,21.7441959 L20.2776249,43.8951034 L2.36588721,35.1557619 L2.36588721,13.0048544 Z M22.6435122,43.8951034 L22.6435122,21.7441959 L31.0522696,17.6373997 L31.0522696,23.4305614 C31.0522696,24.085268 31.5845942,24.6209371 32.2352132,24.6209371 C32.8858322,24.6209371 33.4181568,24.085268 33.4181568,23.4305614 L33.4181568,16.4767835 L40.6143971,12.9651752 L40.6143971,35.1160827 L22.6435122,43.8951034 Z" id="Shape"></path>
            </g>
        </g>
    </g>
</svg>