<?xml version="1.0" encoding="iso-8859-1"?>
<!-- Generator: Adobe Illustrator 19.0.0, SVG Export Plug-In . SVG Version: 6.00 Build 0)  -->
<svg version="1.1" id="Capa_1" xmlns="http://www.w3.org/2000/svg" xmlns:xlink="http://www.w3.org/1999/xlink" x="0px" y="0px"
	 viewBox="0 0 512 512" style="enable-background:new 0 0 512 512;" xml:space="preserve">
<path style="fill:#FF5948;" d="M263.626,326.56l-27.228,126.063l-12.115,56.124c-0.628,2.936-4.09,4.224-6.49,2.431l-29.463-21.964
	c-0.958-0.721-2.174-0.979-3.348-0.721l-35.902,7.85c-2.926,0.639-5.542-1.958-4.904-4.893l12.208-56.557l27.125-125.631
	L263.626,326.56z"/>
<g>
	<path style="fill:#36C8E3;" d="M236.398,452.623l-12.115,56.124c-0.628,2.936-4.09,4.224-6.49,2.431l-29.463-21.964
		c-0.958-0.721-2.174-0.979-3.348-0.721l-35.902,7.85c-2.926,0.639-5.542-1.958-4.904-4.893l12.208-56.557L236.398,452.623z"/>
	<path style="fill:#36C8E3;" d="M248.374,326.56l27.228,126.063l12.115,56.124c0.628,2.936,4.09,4.224,6.49,2.431l29.463-21.964
		c0.958-0.721,2.174-0.979,3.348-0.721l35.902,7.85c2.926,0.639,5.542-1.958,4.904-4.893l-12.208-56.557l-27.125-125.631
		L248.374,326.56z"/>
</g>
<path style="fill:#008FBF;" d="M297.4,497.422c-1.174-0.258-2.39,0-3.348,0.721l-7.429,5.538l1.094,5.066
	c0.628,2.936,4.09,4.224,6.49,2.431l14.993-11.176L297.4,497.422z"/>
<path style="fill:#FF5948;" d="M275.602,452.623l12.115,56.124c0.628,2.936,4.09,4.224,6.49,2.431l29.463-21.964
	c0.958-0.721,2.174-0.979,3.348-0.721l35.902,7.85c2.926,0.639,5.542-1.958,4.904-4.893l-12.208-56.557L275.602,452.623z"/>
<path style="fill:#F8D77E;" d="M448,192c0,12.432-12.783,23.446-15.108,35.195c-2.395,12.107,5.156,27.16,0.537,38.3
	c-4.7,11.333-20.73,16.618-27.475,26.692c-6.796,10.151-5.584,26.972-14.191,35.578c-8.606,8.606-25.427,7.395-35.578,14.191
	c-10.074,6.744-15.358,22.775-26.692,27.474c-11.139,4.619-26.193-2.932-38.299-0.537C279.446,371.217,268.432,384,256,384
	s-23.446-12.783-35.195-15.108c-12.107-2.395-27.16,5.156-38.3,0.537c-11.333-4.7-16.618-20.73-26.692-27.475
	c-10.151-6.796-26.972-5.584-35.578-14.191c-8.606-8.606-7.395-25.427-14.191-35.578C99.3,282.112,83.27,276.828,78.57,265.494
	c-4.619-11.139,2.932-26.193,0.537-38.299C76.783,215.446,64,204.432,64,192s12.783-23.446,15.108-35.195
	c2.395-12.107-5.156-27.16-0.537-38.3c4.7-11.333,20.73-16.618,27.475-26.692c6.796-10.151,5.584-26.972,14.191-35.578
	c8.606-8.606,25.427-7.395,35.578-14.191c10.074-6.744,15.358-22.775,26.692-27.474c11.139-4.619,26.193,2.932,38.299,0.537
	C232.554,12.783,243.568,0,256,0s23.446,12.783,35.195,15.108c12.107,2.395,27.16-5.156,38.3-0.537
	c11.333,4.7,16.618,20.73,26.692,27.475c10.151,6.796,26.972,5.584,35.578,14.191c8.606,8.606,7.395,25.427,14.191,35.578
	c6.744,10.074,22.775,15.358,27.474,26.692c4.619,11.139-2.932,26.193-0.537,38.299C435.217,168.554,448,179.568,448,192z"/>
<circle style="fill:#F7B357;" cx="256" cy="192" r="152.52"/>
<path style="fill:#E68A4E;" d="M256,39.478c-5.256,0-10.449,0.266-15.568,0.785C317.355,48.062,377.386,113.02,377.386,192
	s-60.031,143.938-136.954,151.737c5.119,0.519,10.312,0.785,15.568,0.785c84.235,0,152.522-68.286,152.522-152.522
	S340.235,39.478,256,39.478z"/>
<path style="fill:#4B596E;" d="M242,238.164h-54.418c-2.276,0-4.121-1.845-4.121-4.121v-80.886c0-2.276,1.845-4.121,4.121-4.121H242
	V238.164z"/>
<path style="fill:#C0E8F4;" d="M343.791,170.381v46.441c0,15.931-12.914,28.845-28.845,28.845h-72.865
	c-6.583,0-11.919-5.336-11.919-11.919V107.622c0-5.086,4.123-9.21,9.21-9.21h15.597c8.534,0,15.453,6.918,15.453,15.453v12.516
	c0,8.37,6.785,15.154,15.154,15.154h29.37C330.877,141.536,343.791,154.45,343.791,170.381z"/>
<path style="fill:#9ACAD9;" d="M314.946,141.535h-29.37c-8.37,0-15.154-6.785-15.154-15.154v-12.516
	c0-8.534-6.919-15.453-15.453-15.453h-4.635c2.919,2.546,2.702,10.194,2.702,15.453v12.516c0,8.369,6.785,15.154,15.154,15.154
	h15.779c15.931,0,28.845,12.914,28.845,28.845v46.441c0,15.931-12.914,28.845-28.845,28.845h30.977
	c15.931,0,28.845-12.914,28.845-28.845V170.38C343.792,154.45,330.877,141.535,314.946,141.535z"/>
<g>
</g>
<g>
</g>
<g>
</g>
<g>
</g>
<g>
</g>
<g>
</g>
<g>
</g>
<g>
</g>
<g>
</g>
<g>
</g>
<g>
</g>
<g>
</g>
<g>
</g>
<g>
</g>
<g>
</g>
</svg>
