<?xml version="1.0" encoding="iso-8859-1"?>
<!-- Generator: Adobe Illustrator 19.0.0, SVG Export Plug-In . SVG Version: 6.00 Build 0)  -->
<svg version="1.1" id="Layer_1" xmlns="http://www.w3.org/2000/svg" xmlns:xlink="http://www.w3.org/1999/xlink" x="0px" y="0px"
	 viewBox="0 0 512.003 512.003" style="enable-background:new 0 0 512.003 512.003;" xml:space="preserve">
<path style="fill:#F67656;" d="M325.188,90.337H186.799c0,39.404-31.946,71.36-71.352,71.36v335.675
	c0,3.745,1.428,7.493,4.285,10.345c2.854,2.854,6.6,4.285,10.345,4.285h251.845c3.745,0,7.488-1.431,10.345-4.285
	c2.854-2.852,4.285-6.6,4.285-10.345V161.697C357.132,161.697,325.188,129.741,325.188,90.337z M255.999,158.884
	c-10.097,0-18.278-8.182-18.278-18.278c0-10.081,8.182-18.271,18.278-18.271c10.084,0,18.278,8.189,18.278,18.271
	C274.277,150.705,266.083,158.884,255.999,158.884z"/>
<rect x="173.961" y="220.211" style="fill:#FFFFFF;" width="164.07" height="233.267"/>
<g>
	<rect x="208.101" y="254.336" style="fill:#3F4A5A;" width="19.167" height="165.018"/>
	<rect x="246.424" y="254.336" style="fill:#3F4A5A;" width="19.164" height="165.018"/>
	<rect x="284.747" y="336.845" style="fill:#3F4A5A;" width="19.164" height="82.509"/>
</g>
<path style="fill:#D65A38;" d="M255.999,119.526c-11.648,0-21.084,9.444-21.084,21.082c0,11.651,9.436,21.089,21.084,21.089
	c11.638,0,21.084-9.439,21.084-21.089C277.083,128.97,267.636,119.526,255.999,119.526z M255.999,154.668
	c-7.762,0-14.054-6.295-14.054-14.06c0-7.759,6.292-14.057,14.054-14.057c7.752,0,14.047,6.298,14.047,14.057
	C270.045,148.37,263.75,154.668,255.999,154.668z"/>
<g>
	<path style="fill:#3F4A5A;" d="M259.514,140.608h-7.03v-37.622c0-8.448,3.284-16.384,9.267-22.354
		c5.97-5.98,13.903-9.267,22.349-9.267h73.26v7.03H284.1c-6.569,0-12.741,2.56-17.38,7.201c-4.644,4.644-7.206,10.826-7.206,17.393
		V140.608z"/>
	<path style="fill:#3F4A5A;" d="M357.362,78.392v-7.03c17.736,0,32.161-14.428,32.161-32.161c0-17.741-14.426-32.169-32.161-32.169
		c-17.746,0-32.172,14.428-32.172,32.169h-7.02C318.171,17.582,335.753,0,357.364,0c21.606,0,39.191,17.582,39.191,39.201
		C396.55,60.803,378.968,78.392,357.362,78.392z"/>
	<rect x="318.155" y="39.201" style="fill:#3F4A5A;" width="7.02" height="51.139"/>
	<circle style="fill:#3F4A5A;" cx="255.999" cy="140.608" r="3.515"/>
</g>
<g>
</g>
<g>
</g>
<g>
</g>
<g>
</g>
<g>
</g>
<g>
</g>
<g>
</g>
<g>
</g>
<g>
</g>
<g>
</g>
<g>
</g>
<g>
</g>
<g>
</g>
<g>
</g>
<g>
</g>
</svg>
