<?xml version="1.0" encoding="iso-8859-1"?>
<!-- Generator: Adobe Illustrator 19.0.0, SVG Export Plug-In . SVG Version: 6.00 Build 0)  -->
<svg version="1.1" id="Layer_1" xmlns="http://www.w3.org/2000/svg" xmlns:xlink="http://www.w3.org/1999/xlink" x="0px" y="0px"
	 viewBox="0 0 512 512" style="enable-background:new 0 0 512 512;" xml:space="preserve">
<circle style="fill:#EDC55D;" cx="256" cy="256" r="256"/>
<path style="fill:#CA8F42;" d="M422.812,240.128l7.088,7.956l-15.788-2.324L211.78,133.98l-16.992-19.892l-16.544,5.356
	l-10.064,71.544l-39.124,42.48l-25.988,36.252l40.524,31.936l1.116,88.308l-8.544,9.152l112.404,112.696
	c2.472,0.072,4.932,0.188,7.424,0.188c118.872,0,218.796-81.032,247.612-190.86L422.812,240.128z"/>
<rect x="146.24" y="124.28" style="fill:#FFFFFF;" width="39.692" height="65.084"/>
<polygon style="fill:#F0F6E7;" points="256,106.564 134.112,224.72 134.112,400.496 377.812,400.496 377.812,224.72 377.896,224.72 
	"/>
<rect x="180.48" y="253.52" style="fill:#FFFFFF;" width="75.528" height="146.968"/>
<rect x="277.08" y="265.48" style="fill:#F1EFF7;" width="65.884" height="91.292"/>
<rect x="137.36" y="114.088" style="fill:#E97A24;" width="57.412" height="11.692"/>
<polygon style="fill:#711A12;" points="408.944,269.72 256,121.44 103.072,269.72 82.1,248.084 256,79.5 429.904,248.084 "/>
<rect x="188.6" y="265.48" style="fill:#E37925;" width="59.292" height="135.028"/>
<rect x="284.6" y="273" style="fill:#61C1CA;" width="50.82" height="76.24"/>
<g>
</g>
<g>
</g>
<g>
</g>
<g>
</g>
<g>
</g>
<g>
</g>
<g>
</g>
<g>
</g>
<g>
</g>
<g>
</g>
<g>
</g>
<g>
</g>
<g>
</g>
<g>
</g>
<g>
</g>
</svg>
