<?xml version="1.0" encoding="UTF-8"?>
<svg width="34px" height="36px" viewBox="0 0 34 36" version="1.1" xmlns="http://www.w3.org/2000/svg" xmlns:xlink="http://www.w3.org/1999/xlink">
    <!-- Generator: Sketch 47.1 (45422) - http://www.bohemiancoding.com/sketch -->
    <title>logo</title>
    <desc>Created with Sketch.</desc>
    <defs></defs>
    <g id="Page-1" stroke="none" stroke-width="1" fill="none" fill-rule="evenodd">
        <g id="Artboard" transform="translate(-317.000000, -66.000000)">
            <g id="logo" transform="translate(317.000000, 66.000000)">
                <g id="box" fill-rule="nonzero">
                    <path d="M16.4903052,0.116347249 L0.331316825,7.89864217 C0.128758609,7.99625866 0,8.20084619 0,8.42526884 L0,27.5747312 C0,27.7991538 0.128758609,28.003828 0.331316825,28.1013578 L16.4903052,35.8836528 C16.8123319,36.0387824 17.1876681,36.0387824 17.5096948,35.8836528 L33.6686832,28.1013578 C33.8712414,28.0037413 34,27.7991538 34,27.5747312 L34,8.42526884 C34,8.20084619 33.8712414,7.99617204 33.6686832,7.89864217 L17.5096948,0.116347249 C17.1876681,-0.0387824164 16.8123319,-0.0387824164 16.4903052,0.116347249 Z" id="Shape" fill="#FFE17D"></path>
                    <path d="M0.0975025536,8 C0.0358580184,8.09398541 0,8.20448999 0,8.32134141 L0,27.5429654 C0,27.7682347 0.128758938,27.9736811 0.331317671,28.0715789 L16.4902605,35.8832355 C16.6512308,35.9610495 16.8256588,36 17,36 L17,16.171166 L0.0975025536,8 Z" id="Shape" fill="#FFC350"></path>
                    <path d="M33.9024974,8 C33.964142,8.09398541 34,8.20448999 34,8.32134141 L34,27.5429654 C34,27.7682347 33.8712411,27.9736811 33.6686823,28.0715789 L17.5097395,35.8832355 C17.3487692,35.9610495 17.1743412,36 17,36 L17,16.171166 L33.9024974,8 Z" id="Shape" fill="#FFD164"></path>
                    <path d="M4.35992892,28 C4.26693747,28 4.17195741,27.9761064 4.0826591,27.9262368 L1.3616649,26.4057056 C1.04320233,26.2279285 0.910249183,25.7856779 1.06384606,25.4178481 C1.21678006,25.0500183 1.60020407,24.8967924 1.9173409,25.0731446 L4.6383351,26.5936758 C4.95679767,26.7714529 5.08975082,27.2137036 4.93615394,27.5815333 C4.82630661,27.8461165 4.59780522,28 4.35992892,28 Z" id="Shape" fill="#FFE17D"></path>
                    <path d="M6.40930711,26 C6.32347426,26 6.23580588,25.9782626 6.15338187,25.9328932 L1.33371878,23.2787347 C1.04038371,23.1170004 0.917053613,22.7146587 1.05882641,22.3800222 C1.19998735,22.0460836 1.55441933,21.905987 1.84661813,22.066425 L6.66628122,24.7205835 C6.95961629,24.8823179 7.08294639,25.2846595 6.94117359,25.6192961 C6.83978245,25.8599033 6.62887138,26 6.40930711,26 Z" id="Shape" fill="#FFF6D8"></path>
                </g>
                <text id="M" transform="translate(16.593886, 8.398981) rotate(-29.000000) translate(-16.593886, -8.398981) " font-family="HiraKakuStd-W8, Hiragino Kaku Gothic Std" font-size="12" font-weight="600" fill="#FEFEFE">
                    <tspan x="10.0938858" y="13.3989808">M</tspan>
                </text>
                <text id="M-Copy" font-family="HiraKakuStd-W8, Hiragino Kaku Gothic Std" font-size="14" font-weight="600" fill="#D0021B">
                    <tspan x="18" y="28">M</tspan>
                </text>
            </g>
        </g>
    </g>
</svg>