<?xml version="1.0" encoding="iso-8859-1"?>
<!-- Generator: Adobe Illustrator 19.0.0, SVG Export Plug-In . SVG Version: 6.00 Build 0)  -->
<svg version="1.1" id="Layer_1" xmlns="http://www.w3.org/2000/svg" xmlns:xlink="http://www.w3.org/1999/xlink" x="0px" y="0px"
	 viewBox="0 0 512 512" style="enable-background:new 0 0 512 512;" xml:space="preserve">
<path style="fill:#EFEFEF;" d="M80.776,459.992c0,10.071,3.837,20.14,11.525,27.825c7.675,7.683,17.754,11.525,27.817,11.525l0,0
	c10.076,0,20.147-3.843,27.83-11.525c7.688-7.685,11.525-17.756,11.525-27.825V304.667H80.776V459.992z"/>
<g>
	<path style="fill:#CCCBCA;" d="M147.133,320.198c-8.581,0-15.537,6.956-15.537,15.532c0,8.576,6.958,15.534,15.537,15.534h12.337
		v-31.068h-12.337V320.198z"/>
	<path style="fill:#CCCBCA;" d="M147.133,366.798c-8.581,0-15.537,6.95-15.537,15.532c0,8.576,6.958,15.529,15.537,15.529h12.337
		v-31.063h-12.337V366.798z"/>
	<path style="fill:#CCCBCA;" d="M147.133,413.393c-8.581,0-15.537,6.956-15.537,15.534s6.958,15.526,15.537,15.526h12.337V413.39
		h-12.337V413.393z"/>
</g>
<rect x="159.462" y="320.204" style="fill:#3F4A5A;" width="13.112" height="31.068"/>
<path style="fill:#D9D8D7;" d="M465.405,154.52v93.194c25.733,0,46.595-20.861,46.595-46.6
	C512,175.382,491.139,154.52,465.405,154.52z"/>
<path style="fill:#3F4A5A;" d="M41.426,273.599H18.284c-4.675,0-9.354-1.782-12.925-5.358C1.784,264.675,0,259.992,0,255.315
	V146.915c0-4.675,1.784-9.357,5.358-12.925c3.571-3.574,8.251-5.358,12.925-5.358h23.142V273.599z"/>
<path style="fill:#F67656;" d="M198.822,304.667H59.709c-4.68,0-9.359-1.784-12.931-5.361c-3.571-3.566-5.353-8.251-5.353-12.925
	V115.852c0-4.68,1.784-9.359,5.353-12.928c3.571-3.571,8.251-5.356,12.931-5.356h139.113V304.667z"/>
<path style="fill:#E66847;" d="M198.822,304.667H59.709c-4.68,0-9.359-1.784-12.931-5.361c-3.571-3.566-5.353-8.251-5.353-12.925
	v-85.266h157.396V304.667z"/>
<polygon style="fill:#EFEFEF;" points="198.822,97.568 198.822,304.667 430.083,389.582 430.083,12.658 "/>
<polygon style="fill:#D9D8D7;" points="198.822,201.115 198.822,304.667 430.083,389.582 430.083,201.115 "/>
<path style="fill:#3F4A5A;" d="M471.501,371.291c0,4.682-1.782,9.362-5.358,12.933c-3.574,3.569-8.251,5.358-12.925,5.358h-23.135
	V12.658h23.135c4.675,0,9.352,1.784,12.925,5.356c3.574,3.569,5.358,8.251,5.358,12.928V371.291z"/>
<g>
</g>
<g>
</g>
<g>
</g>
<g>
</g>
<g>
</g>
<g>
</g>
<g>
</g>
<g>
</g>
<g>
</g>
<g>
</g>
<g>
</g>
<g>
</g>
<g>
</g>
<g>
</g>
<g>
</g>
</svg>
