<?xml version="1.0" encoding="UTF-8"?>
<svg width="70px" height="18px" viewBox="0 0 70 18" version="1.1" xmlns="http://www.w3.org/2000/svg" xmlns:xlink="http://www.w3.org/1999/xlink">
    <!-- Generator: Sketch 47.1 (45422) - http://www.bohemiancoding.com/sketch -->
    <title>more-on</title>
    <desc>Created with Sketch.</desc>
    <defs></defs>
    <g id="Page-1" stroke="none" stroke-width="1" fill="none" fill-rule="evenodd">
        <g id="Artboard" transform="translate(-45.000000, -98.000000)" fill-rule="nonzero" fill="#1D2026">
            <g id="more-on" transform="translate(45.000000, 98.000000)">
                <path d="M9,0 C4.037625,0 0,4.037625 0,9 C0,13.962375 4.037625,18 9,18 C13.962375,18 18,13.962375 18,9 C18,4.037625 13.962375,0 9,0 Z" id="Shape"></path>
                <path d="M61,0 C56.037625,0 52,4.037625 52,9 C52,13.962375 56.037625,18 61,18 C65.962375,18 70,13.962375 70,9 C70,4.037625 65.962375,0 61,0 Z" id="Shape"></path>
                <path d="M35,0 C30.037625,0 26,4.037625 26,9 C26,13.962375 30.037625,18 35,18 C39.962375,18 44,13.962375 44,9 C44,4.037625 39.962375,0 35,0 Z" id="Shape"></path>
            </g>
        </g>
    </g>
</svg>