<?xml version="1.0" encoding="UTF-8"?>
<svg width="129px" height="219px" viewBox="0 0 129 219" version="1.1" xmlns="http://www.w3.org/2000/svg" xmlns:xlink="http://www.w3.org/1999/xlink">
    <!-- Generator: Sketch 48.2 (47327) - http://www.bohemiancoding.com/sketch -->
    <title>right-arrow</title>
    <desc>Created with Sketch.</desc>
    <defs></defs>
    <g id="Desktop-HD" stroke="none" stroke-width="1" fill="none" fill-rule="evenodd" transform="translate(-796.000000, -260.000000)">
        <g id="right-arrow" transform="translate(796.000000, 260.000000)" fill="#FFFFFF" fill-rule="nonzero">
            <path d="M125.497465,100.954618 L27.7826039,3.49863009 C25.5225784,1.24277038 22.5056408,0 19.2887641,0 C16.0718874,0 13.0549497,1.24277038 10.7949242,3.49863009 L3.59890314,10.6739376 C-1.08359832,15.3494606 -1.08359832,22.9485207 3.59890314,27.6169218 L85.6524665,109.454598 L3.50785946,191.383078 C1.24783397,193.638938 0,196.646157 0,199.85279 C0,203.062983 1.24783397,206.070203 3.50785946,208.327843 L10.7038806,215.50137 C12.9656912,217.75723 15.9808437,219 19.1977204,219 C22.4145971,219 25.4315348,217.75723 27.6915602,215.50137 L125.497465,117.956358 C127.762846,115.693376 129.00711,112.671913 128.999969,109.459939 C129.00711,106.235502 127.762846,103.215819 125.497465,100.954618 Z" id="Shape"></path>
        </g>
    </g>
</svg>