<?xml version="1.0" encoding="iso-8859-1"?>
<!-- Generator: Adobe Illustrator 19.0.0, SVG Export Plug-In . SVG Version: 6.00 Build 0)  -->
<svg version="1.1" id="Layer_1" xmlns="http://www.w3.org/2000/svg" xmlns:xlink="http://www.w3.org/1999/xlink" x="0px" y="0px"
	 viewBox="0 0 512 512" style="enable-background:new 0 0 512 512;" xml:space="preserve">
<g>
	<polygon style="fill:#2C3E50;" points="104,198.352 93.44,186.32 258.816,41.296 418.432,186.416 407.68,198.272 258.624,62.736 	
		"/>
	<circle style="fill:#2C3E50;" cx="258.72" cy="64.464" r="37.472"/>
</g>
<rect y="177.264" style="fill:#E04F5F;" width="512" height="307.744"/>
<g>
	<path style="fill:#FFFFFF;" d="M69.392,358.976c6.496,3.344,16.496,6.672,26.816,6.672c11.104,0,16.992-4.608,16.992-11.584
		c0-6.672-5.072-10.48-17.936-15.072c-17.76-6.192-29.36-16.032-29.36-31.584c0-18.256,15.232-32.224,40.464-32.224
		c12.064,0,20.96,2.528,27.296,5.392l-5.392,19.52c-4.288-2.064-11.904-5.056-22.368-5.056c-10.48,0-15.568,4.752-15.568,10.32
		c0,6.816,6.032,9.824,19.84,15.056c18.896,6.992,27.76,16.832,27.76,31.904c0,17.936-13.792,33.168-43.152,33.168
		c-12.224,0-24.288-3.184-30.32-6.512L69.392,358.976z"/>
	<path style="fill:#FFFFFF;" d="M252.224,329.296c0,35.072-21.248,56.336-52.512,56.336c-31.744,0-50.32-23.968-50.32-54.432
		c0-32.048,20.464-56.016,52.048-56.016C234.304,275.184,252.224,299.776,252.224,329.296z M174.944,330.736
		c0,20.944,9.84,35.696,26.032,35.696c16.336,0,25.696-15.568,25.696-36.336c0-19.2-9.2-35.696-25.856-35.696
		C184.48,294.384,174.944,309.936,174.944,330.736z"/>
	<path style="fill:#FFFFFF;" d="M268.144,276.944h24.272v86.64h42.528v20.32h-66.8L268.144,276.944L268.144,276.944z"/>
	<path style="fill:#FFFFFF;" d="M349.232,278.352c8.896-1.424,20.464-2.224,32.704-2.224c20.32,0,33.472,3.648,43.792,11.424
		c11.104,8.256,18.08,21.424,18.08,40.32c0,20.464-7.456,34.592-17.76,43.312c-11.264,9.376-28.4,13.808-49.36,13.808
		c-12.528,0-21.424-0.8-27.456-1.584V278.352z M373.52,365.648c2.064,0.48,5.408,0.48,8.416,0.48
		c21.888,0.16,36.176-11.904,36.176-37.456c0.16-22.224-12.864-33.968-33.648-33.968c-5.392,0-8.896,0.48-10.96,0.96v69.984H373.52z
		"/>
</g>
<g>
</g>
<g>
</g>
<g>
</g>
<g>
</g>
<g>
</g>
<g>
</g>
<g>
</g>
<g>
</g>
<g>
</g>
<g>
</g>
<g>
</g>
<g>
</g>
<g>
</g>
<g>
</g>
<g>
</g>
</svg>
